<svg width="42" height="45" viewBox="0 0 42 45" fill="none" xmlns="http://www.w3.org/2000/svg">
<g filter="url(#filter0_d_1_479)">
<path fill-rule="evenodd" clip-rule="evenodd" d="M37.6668 20C37.6668 29.2 30.1835 36.6666 21.0002 36.6666L20.5339 36.6602C11.5492 36.413 4.3335 29.044 4.3335 20C4.3335 10.8166 11.8002 3.33331 21.0002 3.33331C30.1835 3.33331 37.6668 10.8166 37.6668 20ZM17.7002 13.3333C17.2168 13.8333 17.2168 14.6166 17.7168 15.1L22.6335 20L17.7168 24.9C17.2168 25.3833 17.2168 26.1833 17.7002 26.6666C18.2002 27.1666 18.9835 27.1666 19.4668 26.6666L25.2835 20.8833C25.5168 20.65 25.6502 20.3333 25.6502 20C25.6502 19.6666 25.5168 19.35 25.2835 19.1166L19.4668 13.3333C19.2335 13.0833 18.9168 12.9666 18.6002 12.9666C18.2668 12.9666 17.9502 13.0833 17.7002 13.3333Z" fill="#141024"/>
</g>
<defs>
<filter id="filter0_d_1_479" x="-3" y="0" width="48" height="48" filterUnits="userSpaceOnUse" color-interpolation-filters="sRGB">
<feFlood flood-opacity="0" result="BackgroundImageFix"/>
<feColorMatrix in="SourceAlpha" type="matrix" values="0 0 0 0 0 0 0 0 0 0 0 0 0 0 0 0 0 0 127 0" result="hardAlpha"/>
<feOffset dy="4"/>
<feGaussianBlur stdDeviation="2"/>
<feComposite in2="hardAlpha" operator="out"/>
<feColorMatrix type="matrix" values="0 0 0 0 0 0 0 0 0 0 0 0 0 0 0 0 0 0 0.25 0"/>
<feBlend mode="normal" in2="BackgroundImageFix" result="effect1_dropShadow_1_479"/>
<feBlend mode="normal" in="SourceGraphic" in2="effect1_dropShadow_1_479" result="shape"/>
</filter>
</defs>
</svg>
