<svg width="42" height="45" viewBox="0 0 42 45" fill="none" xmlns="http://www.w3.org/2000/svg">
<g filter="url(#filter0_d_1_480)">
<path fill-rule="evenodd" clip-rule="evenodd" d="M4.33317 20C4.33317 29.2 11.8165 36.6666 20.9998 36.6666L21.4661 36.6602C30.4508 36.413 37.6665 29.044 37.6665 20C37.6665 10.8166 30.1998 3.33331 20.9998 3.33331C11.8165 3.33331 4.33317 10.8166 4.33317 20ZM24.2998 13.3333C24.7832 13.8333 24.7832 14.6166 24.2832 15.1L19.3665 20L24.2832 24.9C24.7832 25.3833 24.7832 26.1833 24.2998 26.6666C23.7998 27.1666 23.0165 27.1666 22.5332 26.6666L16.7165 20.8833C16.4832 20.65 16.3498 20.3333 16.3498 20C16.3498 19.6666 16.4832 19.35 16.7165 19.1166L22.5332 13.3333C22.7665 13.0833 23.0832 12.9666 23.3998 12.9666C23.7332 12.9666 24.0498 13.0833 24.2998 13.3333Z" fill="#141024"/>
</g>
<defs>
<filter id="filter0_d_1_480" x="-3" y="0" width="48" height="48" filterUnits="userSpaceOnUse" color-interpolation-filters="sRGB">
<feFlood flood-opacity="0" result="BackgroundImageFix"/>
<feColorMatrix in="SourceAlpha" type="matrix" values="0 0 0 0 0 0 0 0 0 0 0 0 0 0 0 0 0 0 127 0" result="hardAlpha"/>
<feOffset dy="4"/>
<feGaussianBlur stdDeviation="2"/>
<feComposite in2="hardAlpha" operator="out"/>
<feColorMatrix type="matrix" values="0 0 0 0 0 0 0 0 0 0 0 0 0 0 0 0 0 0 0.25 0"/>
<feBlend mode="normal" in2="BackgroundImageFix" result="effect1_dropShadow_1_480"/>
<feBlend mode="normal" in="SourceGraphic" in2="effect1_dropShadow_1_480" result="shape"/>
</filter>
</defs>
</svg>
